# AST/ASF file generated using VICON BodyLanguage
# -----------------------------------------------
:version 1.10
:name VICON
:units
  mass 1.0
  length 0.45
  angle deg
:documentation
   .ast/.asf automatically generated from VICON data using
   VICON BodyBuilder and BodyLanguage model FoxedUp or BRILLIANT.MOD
:root
   order TX TY TZ RX RY RZ
   axis XYZ
   position 0 0 0  
   orientation 0 0 0 
:bonedata
  begin
     id 1 
     name lhipjoint
     direction 0.78388 -0.462562 0.414208 
     length 3.01181 
     axis 0 0 0  XYZ
  end
  begin
     id 2 
     name lfemur
     direction 0.34202 -0.939693 0  
     length 6.04673  
     axis 0 0 20  XYZ
    dof rx ry rz
    limits (-160.0 20.0)
           (-70.0 70.0)
           (-60.0 70.0)
  end
  begin
     id 3 
     name ltibia
     direction 0.34202 -0.939693 0   
     length 7.211   
     axis 0 0 20   XYZ
    dof rx
    limits (-10.0 170.0)
  end
  begin
     id 4 
     name lfoot
     direction 0.121887 -0.334882 0.934344   
     length 2.13567   
     axis -90 7.62852e-016 20   XYZ
    dof rx rz
    limits (-45.0 90.0)
           (-70.0 20.0)
  end
  begin
     id 5 
     name ltoes
     direction 1.53555e-011 -4.2179e-011 1   
     length 1.05957   
     axis -90 7.62852e-016 20   XYZ
    dof rx
    limits (-90.0 20.0)
  end
  begin
     id 6 
     name rhipjoint
     direction -0.769387 -0.475875 0.426129   
     length 2.92756  
     axis 0 0 0  XYZ 
  end
  begin
     id 7 
     name rfemur
     direction -0.34202 -0.939693 0   
     length 6.35468   
     axis 0 0 -20   XYZ
    dof rx ry rz
    limits (-160.0 20.0)
           (-70.0 70.0)
           (-70.0 60.0)
  end
  begin
     id 8 
     name rtibia
     direction -0.34202 -0.939693 0   
     length 7.37886   
     axis 0 0 -20   XYZ
    dof rx
    limits (-10.0 170.0)
 end
 begin
     id 9 
     name rfoot
     direction -0.101763 -0.279592 0.954711   
     length 2.21478  
     axis -90 -7.62852e-016 -20   XYZ
    dof rx rz
    limits (-45.0 90.0)
           (-20.0 70.0)
  end
  begin
     id 10 
     name rtoes
     direction -1.53494e-011 -4.21851e-011 1   
     length 1.10506   
     axis -90 -7.62852e-016 -20   XYZ
    dof rx
    limits (-90.0 20.0)
  end
  begin
     id 11 
     name lowerback
     direction 0.00747405 0.999267 0.0375481   
     length 2.13259   
     axis 0 0 0   XYZ
    dof rx ry rz
    limits (-20.0 45.0)
           (-30.0 30.0)
           (-30.0 30.0)
  end
  begin
     id 12 
     name upperback
     direction 0.00661626 0.996177 0.0871029   
     length 2.10528   
     axis 0 0 0   XYZ
    dof rx ry rz
    limits (-20.0 45.0)
           (-30.0 30.0)
           (-30.0 30.0)
  end
  begin
     id 13 
     name thorax
     direction 0.00320659 0.997679 0.0680167   
     length 2.11338   
     axis 0 0 0   XYZ
    dof rx ry rz
    limits (-20.0 45.0)
           (-30.0 30.0)
           (-30.0 30.0)
  end
  begin
     id 14 
     name lowerneck
     direction 0.0374841 0.973033 0.227602   
     length 1.42765   
     axis 0 0 0   XYZ
    dof rx ry rz
    limits (-20.0 45.0)
           (-30.0 30.0)
           (-30.0 30.0)
  end
  begin
     id 15 
     name upperneck
     direction 0.00481585 0.989155 -0.146795   
     length 1.47593   
     axis 0 0 0   XYZ
    dof rx ry rz
    limits (-20.0 45.0)
           (-30.0 30.0)
           (-30.0 30.0)
  end
  begin
     id 16
     name head
     direction -0.00292522 0.997206 -0.0746423  
     length 1.48116  
     axis 0 0 0   XYZ
    dof rx ry rz
    limits (-20.0 45.0)
           (-30.0 30.0)
           (-30.0 30.0)
  end
  begin
     id 17 
     name lclavicle
     direction 0.951444 0.305606 0.0368784  
     length 3.01855  
     axis 0 0 0   XYZ
    dof ry rz
    limits (-20.0 10.0)
           (0.0 20.0)
  end
  begin
     id 18 
     name lhumerus
     direction 1 -4.48977e-011 2.61664e-027   
     length 5.52731   
     axis 180 -30 -90   XYZ
    dof rx ry rz
    limits (-60.0 90.0)
           (-90.0 90.0)
           (-90.0 90.0)
  end
  begin
     id 19
     name lradius
     direction 1 -4.48944e-011 8.22157e-027   
     length 3.11059   
     axis 180 -30 -90   XYZ
    dof rx
    limits (-10.0 170.0)
  end
  begin
     id 20
     name lwrist
     direction 1 -4.48976e-011 1.5779e-026   
     length 1.5553   
     axis -1.15221e-014 90 90   XYZ
    dof ry
    limits (-180.0 0.0)
 end
  begin
     id 21 
     name lhand
     direction 1 -4.49025e-011 3.1558e-026   
     length 0.419626   
     axis -2.01367e-014 90 90   XYZ
    dof rx rz
    limits (-90.0 90.0)
           (-45.0 45.0)
  end
  begin
     id 22 
     name lfingers
     direction 1 -4.4904e-011 6.31161e-026   
     length 0.338313   
     axis -4.02734e-014 90 90   XYZ
    dof rx
    limits (0.0 90.0)
  end
  begin
     id 23
     name lthumb
     direction 0.707107 -6.35004e-011 0.707107   
     length 0.485752   
     axis -90 45 2.85299e-015   XYZ
    dof rx rz
    limits (-45.0 45.0)
           (-45.0 45.0)
  end
  begin
     id 24 
     name rclavicle
     direction -0.968876 0.223791 0.105816   
     length 3.04177  
     axis 0 0 0   XYZ 
    dof ry rz
    limits (-10.0 20.0)
           (-20.0 0.0)
  end
  begin
     id 25 
     name rhumerus
     direction -1 -4.48962e-011 -1.01384e-027  
     length 5.25396   
     axis 180 30 90   XYZ
    dof rx ry rz
    limits (-90.0 60.0)
           (-90.0 90.0)
           (-90.0 90.0)
  end
  begin
     id 26 
     name rradius
     direction -1 -4.48955e-011 8.88542e-027   
     length 3.10567   
     axis 180 30 90   XYZ
    dof rx
    limits (-10.0 170.0)
  end
  begin
     id 27 
     name rwrist
     direction -1 -4.48994e-011 1.5779e-026   
     length 1.55283   
     axis -1.15221e-014 -90 -90   XYZ
    dof ry
    limits (-180.0 0.0)
  end
  begin
     id 28
     name rhand
     direction -1 -4.48891e-011 3.1558e-026   
     length 0.498676   
     axis -2.01367e-014 -90 -90   XYZ
    dof rx rz
    limits (-90.0 90.0)
           (-45.0 45.0)
  end
  begin
     id 29
     name rfingers
     direction -1 -4.48972e-011 6.31161e-026   
     length 0.402045   
     axis -4.02734e-014 -90 -90   XYZ
    dof rx
    limits (0.0 90.0)
  end
  begin
     id 30
     name rthumb
     direction -0.707107 -6.34849e-011 0.707107   
     length 0.577259   
     axis -90 -45 -2.85299e-015   XYZ
    dof rx rz
    limits (-45.0 45.0)
           (-45.0 45.0)
  end
:hierarchy
  begin
    root lhipjoint rhipjoint lowerback
    lhipjoint lfemur
    lfemur ltibia
    ltibia lfoot
    lfoot ltoes
    rhipjoint rfemur
    rfemur rtibia
    rtibia rfoot
    rfoot rtoes
    lowerback upperback
    upperback thorax
    thorax lowerneck lclavicle rclavicle
    lowerneck upperneck
    upperneck head
    lclavicle lhumerus
    lhumerus lradius
    lradius lwrist
    lwrist lhand lthumb
    lhand lfingers
    rclavicle rhumerus
    rhumerus rradius
    rradius rwrist
    rwrist rhand rthumb
    rhand rfingers
  end

#!OML:ASF H:\Pregnant\Project 1\Capture day 1\Session 1\femalepreg.ASF
:FULLY-SPECIFIED
:DEGREES
382
root 5.4115 2.57386 23.6408 147.491 -78.7236 -179.068
lowerback 58.4722 -1.21512 5.20247
upperback 8.36616 -1.32115 -1.53494
thorax -12.0828 -1.73977 -3.15882
lowerneck -14.3927 18.7607 17.0315
upperneck 6.81624 23.3723 -11.4144
head 7.62822 11.0119 -3.09732
rclavicle -1.63997e-014 -1.23246e-014
rhumerus 8.50952 45.7188 -18.2894
rradius 73.8352
rwrist -53.4549
rhand 30.1869 -15.6952
rfingers 7.12502
rthumb 53.8749 -34.6175
lclavicle -1.63997e-014 -1.23246e-014
lhumerus -33.761 -13.6789 66.1118
lradius 66.4432
lwrist 67.7342
lhand -48.0151 -6.12423
lfingers 7.12502
lthumb -20.6829 22.7937
rfemur -140.066 -26.2829 63.5385
rtibia 142.287
rfoot 12.2309 9.13134
rtoes 31.8779
lfemur -128.909 14.6604 -60.0466
ltibia 136.31
lfoot 16.5388 -1.04367
ltoes 32.8309
383
root 5.39907 2.57045 23.6371 147.811 -78.7805 -179.039
lowerback 58.1478 -1.24386 5.29144
upperback 8.44856 -1.32325 -1.64771
thorax -11.9721 -1.72784 -3.33252
lowerneck -14.3425 18.8947 17.1177
upperneck 6.65318 23.5476 -11.5224
head 7.61269 11.0921 -3.11335
rclavicle 7.00716e-015 -1.56046e-014
rhumerus 9.2919 45.957 -17.0447
rradius 73.6354
rwrist -52.5831
rhand 29.6563 -15.702
rfingers 7.12502
rthumb 53.3977 -34.9393
lclavicle 7.00716e-015 -1.56046e-014
lhumerus -34.654 -13.7038 66.3555
lradius 65.1347
lwrist 67.4131
lhand -49.6632 -7.09842
lfingers 7.12502
lthumb -22.2658 21.6389
rfemur -140.697 -26.107 63.8107
rtibia 142.388
rfoot 12.379 9.18758
rtoes 31.8373
lfemur -129.276 14.1955 -60.1102
ltibia 136.343
lfoot 16.7099 -0.933365
ltoes 32.4324
384
root 5.38386 2.56454 23.6335 148.086 -78.9028 -178.862
lowerback 57.6585 -1.29962 5.39737
upperback 8.54826 -1.34171 -1.74489
thorax -11.8307 -1.7188 -3.492
lowerneck -14.3038 19.0113 17.1927
upperneck 6.49916 23.7037 -11.6497
head 7.60144 11.1613 -3.13618
rclavicle 7.50412e-015 -2.98177e-016
rhumerus 10.0662 46.215 -15.7784
rradius 73.4856
rwrist -51.7992
rhand 29.1148 -15.6938
rfingers 7.12502
rthumb 52.9094 -35.2434
lclavicle 7.50412e-015 -2.98177e-016
lhumerus -35.5459 -13.735 66.6311
lradius 63.8007
lwrist 67.1707
lhand -51.0538 -7.96149
lfingers 7.12502
lthumb -23.6002 20.6102
rfemur -141.503 -25.8302 64.0551
rtibia 142.522
rfoot 12.5852 9.17944
rtoes 31.829
lfemur -129.698 13.4688 -60.0833
ltibia 136.375
lfoot 16.9137 -0.627764
ltoes 32.364
385
root 5.36796 2.55791 23.6298 148.282 -79.065 -178.577
lowerback 57.1201 -1.36383 5.50929
upperback 8.65114 -1.36298 -1.82245
thorax -11.6795 -1.71017 -3.63189
lowerneck -14.2753 19.112 17.2588
upperneck 6.35103 23.8432 -11.8031
head 7.59482 11.2203 -3.16778
rclavicle 1.37161e-014 1.0138e-014
rhumerus 10.8423 46.5013 -14.4738
rradius 73.3858
rwrist -51.1113
rhand 28.5835 -15.6672
rfingers 7.12502
rthumb 52.4291 -35.5145
lclavicle 1.37161e-014 1.0138e-014
lhumerus -36.437 -13.7873 66.9439
lradius 62.4507
lwrist 67.0312
lhand -52.1909 -8.6978
lfingers 7.12502
lthumb -24.6905 19.7291
rfemur -142.372 -25.5483 64.2943
rtibia 142.671
rfoot 12.8038 9.15443
rtoes 31.8505
lfemur -130.115 12.644 -60.0073
ltibia 136.399
lfoot 17.1081 -0.238923
ltoes 32.4877
386
root 5.35352 2.55212 23.6261 148.364 -79.2424 -178.223
lowerback 56.6346 -1.42073 5.61939
upperback 8.74475 -1.374 -1.87858
thorax -11.5387 -1.69912 -3.75065
lowerneck -14.2542 19.1965 17.3171
upperneck 6.20607 23.966 -11.9846
head 7.59191 11.2691 -3.20911
rclavicle -7.15625e-015 4.47266e-014
rhumerus 11.6234 46.8201 -13.1223
rradius 73.3345
rwrist -50.5303
rhand 28.0711 -15.6327
rfingers 7.12502
rthumb 51.9647 -35.7593
lclavicle -7.15625e-015 4.47266e-014
lhumerus -37.3263 -13.877 67.2985
lradius 61.0919
lwrist 67.0038
lhand -53.0817 -9.28057
lfingers 7.12502
lthumb -25.544 19.0268
rfemur -143.193 -25.3354 64.5369
rtibia 142.813
rfoot 12.9942 9.14591
rtoes 31.9019
lfemur -130.474 11.8641 -59.9187
ltibia 136.411
lfoot 17.2662 0.135546
ltoes 32.673
387
root 5.34178 2.54801 23.6224 148.314 -79.4193 -177.819
lowerback 56.2604 -1.46174 5.72511
upperback 8.82181 -1.36625 -1.91435
thorax -11.4208 -1.68335 -3.85106
lowerneck -14.2343 19.2644 17.3727
upperneck 6.06132 24.0709 -12.1938
head 7.59119 11.3078 -3.26151
rclavicle 3.97569e-015 -5.76476e-015
rhumerus 12.4072 47.1712 -11.7267
rradius 73.3288
rwrist -50.0667
rhand 27.5807 -15.6135
rfingers 7.12502
rthumb 51.5193 -36.0003
lclavicle 3.97569e-015 -5.76476e-015
lhumerus -38.2152 -14.0244 67.6972
lradius 59.7345
lwrist 67.0847
lhand -53.7416 -9.66646
lfingers 7.12502
lthumb -26.1759 18.5488
rfemur -143.903 -25.2296 64.7886
rtibia 142.938
rfoot 13.135 9.17188
rtoes 31.9862
lfemur -130.74 11.2099 -59.8372
ltibia 136.41
lfoot 17.3788 0.443945
ltoes 32.8496
388
root 5.3332 2.54573 23.6187 148.131 -79.5889 -177.374
lowerback 56.0133 -1.48474 5.82697
upperback 8.87951 -1.33658 -1.93263
thorax -11.3312 -1.6617 -3.93758
lowerneck -14.2094 19.3151 17.4289
upperneck 5.91502 24.1569 -12.4263
head 7.5907 11.3364 -3.32486
rclavicle -2.46493e-014 7.15625e-015
rhumerus 13.1921 47.551 -10.2959
rradius 73.3628
rwrist -49.7193
rhand 27.1109 -15.6313
rfingers 7.12502
rthumb 51.0918 -36.2613
lclavicle -2.46493e-014 7.15625e-015
lhumerus -39.1056 -14.2417 68.1421
lradius 58.3858
lwrist 67.2529
lhand -54.193 -9.79457
lfingers 7.12502
lthumb -26.608 18.3559
rfemur -144.48 -25.2322 65.0436
rtibia 143.043
rfoot 13.2231 9.23149
rtoes 32.102
lfemur -130.906 10.7032 -59.7694
ltibia 136.395
lfoot 17.4501 0.67362
ltoes 32.9925
389
root 5.32735 2.54497 23.6151 147.835 -79.7505 -176.896
lowerback 55.8746 -1.4924 5.92948
upperback 8.91997 -1.28574 -1.93868
thorax -11.267 -1.63377 -4.01813
lowerneck -14.1793 19.3483 17.4837
upperneck 5.7678 24.2219 -12.6713
head 7.58854 11.3548 -3.39631
rclavicle -1.71949e-014 1.03368e-014
rhumerus 13.9736 47.9501 -8.84692
rradius 73.4276
rwrist -49.4711
rhand 26.6691 -15.6998
rfingers 7.12502
rthumb 50.689 -36.5531
lclavicle -1.71949e-014 1.03368e-014
lhumerus -39.9978 -14.5376 68.633
lradius 57.0533
lwrist 67.483
lhand -54.4653 -9.60281
lfingers 7.12502
lthumb -26.8686 18.5079
rfemur -144.934 -25.3168 65.2908
rtibia 143.13
rfoot 13.2699 9.31218
rtoes 32.2485
lfemur -130.986 10.3219 -59.7129
ltibia 136.371
lfoot 17.4905 0.838012
ltoes 33.1023
390
root 5.32342 2.54514 23.6113 147.458 -79.9066 -176.392
lowerback 55.806 -1.4889 6.03634
upperback 8.94858 -1.21731 -1.93834
thorax -11.2197 -1.59991 -4.10009
lowerneck -14.1505 19.3647 17.5293
upperneck 5.62248 24.265 -12.9133
head 7.5832 11.363 -3.4702
rclavicle -2.19657e-014 3.24019e-014
rhumerus 14.7513 48.3566 -7.39659
rradius 73.514
rwrist -49.294
rhand 26.2671 -15.819
rfingers 7.12502
rthumb 50.3219 -36.871
lclavicle -2.19657e-014 3.24019e-014
lhumerus -40.8893 -14.9093 69.1676
lradius 55.7418
lwrist 67.7484
lhand -54.5904 -9.04459
lfingers 7.12502
lthumb -26.9883 19.0476
rfemur -145.295 -25.4416 65.5151
rtibia 143.204
rfoot 13.2945 9.39309
rtoes 32.425
lfemur -131.008 10.0224 -59.6621
ltibia 136.339
lfoot 17.5114 0.9631
ltoes 33.1954
391
root 5.32049 2.5457 23.6073 147.044 -80.0576 -175.88
lowerback 55.7696 -1.47703 6.15062
upperback 8.97228 -1.13419 -1.93728
thorax -11.1788 -1.56026 -4.19066
lowerneck -14.1365 19.3654 17.5513
upperneck 5.48409 24.2852 -13.1332
head 7.5736 11.361 -3.53842
rclavicle -7.95139e-016 -2.98177e-014
rhumerus 15.5227 48.7557 -5.96271
rradius 73.6123
rwrist -49.1533
rhand 25.9188 -15.9789
rfingers 7.12502
rthumb 50.0034 -37.1999
lclavicle -7.95139e-016 -2.98177e-014
lhumerus -41.7725 -15.3452 69.7423
lradius 54.4512
lwrist 68.0284
lhand -54.5955 -8.10235
lfingers 7.12502
lthumb -26.9932 19.9891
rfemur -145.589 -25.5639 65.7012
rtibia 143.27
rfoot 13.3147 9.45341
rtoes 32.63
lfemur -131.002 9.76658 -59.6122
ltibia 136.305
lfoot 17.5212 1.07272
ltoes 33.2916
392
root 5.31789 2.54624 23.6029 146.635 -80.2027 -175.381
lowerback 55.7334 -1.45848 6.27409
upperback 8.99823 -1.03918 -1.94114
thorax -11.134 -1.51508 -4.29637
lowerneck -14.1532 19.3517 17.5348
upperneck 5.35844 24.2817 -13.3117
head 7.55928 11.3483 -3.5926
rclavicle -8.05078e-015 2.14687e-014
rhumerus 16.2846 49.1327 -4.56246
rradius 73.7153
rwrist -49.0223
rhand 25.6361 -16.1644
rfingers 7.12502
rthumb 49.7446 -37.5202
lclavicle -8.05078e-015 2.14687e-014
lhumerus -42.6371 -15.8294 70.3507
lradius 53.179
lwrist 68.3107
lhand -54.503 -6.79935
lfingers 7.12502
lthumb -26.9047 21.3058
rfemur -145.833 -25.6486 65.8342
rtibia 143.332
rfoot 13.3446 9.47584
rtoes 32.8623
lfemur -130.994 9.52723 -59.5613
ltibia 136.271
lfoot 17.5262 1.18147
ltoes 33.4
393
root 5.31529 2.54662 23.5981 146.261 -80.34 -174.919
lowerback 55.6826 -1.4334 6.40586
upperback 9.03147 -0.934648 -1.95443
thorax -11.0785 -1.46487 -4.42112
lowerneck -14.2109 19.3256 17.4737
upperneck 5.24963 24.2552 -13.4362
head 7.54054 11.3255 -3.62729
rclavicle -2.5842e-015 -3.24019e-014
rhumerus 17.0341 49.4752 -3.21183
rradius 73.8173
rwrist -48.8865
rhand 25.424 -16.362
rfingers 7.12502
rthumb 49.5501 -37.8177
lclavicle -2.5842e-015 -3.24019e-014
lhumerus -43.4753 -16.3465 70.9841
lradius 51.924
lwrist 68.5952
lhand -54.3305 -5.20457
lfingers 7.12502
lthumb -26.7397 22.9259
rfemur -146.034 -25.6813 65.9102
rtibia 143.389
rfoot 13.3899 9.45437
rtoes 33.1221
lfemur -130.996 9.29785 -59.5103
ltibia 136.243
lfoot 17.5294 1.29125
ltoes 33.5187
394
root 5.3127 2.54681 23.593 145.94 -80.4687 -174.507
lowerback 55.6105 -1.40142 6.5404
upperback 9.07449 -0.824244 -1.97847
thorax -11.0093 -1.41101 -4.56227
lowerneck -14.3082 19.2902 17.3707
upperneck 5.15742 24.2095 -13.5034
head 7.51735 11.2945 -3.64121
rclavicle 1.67973e-014 1.59028e-015
rhumerus 17.7782 49.7757 -1.91743
rradius 73.9136
rwrist -48.745
rhand 25.279 -16.5595
rfingers 7.12502
rthumb 49.4172 -38.0829
lclavicle 1.67973e-014 1.59028e-015
lhumerus -44.2857 -16.8757 71.6356
lradius 50.6858
lwrist 68.8897
lhand -54.0933 -3.42011
lfingers 7.12502
lthumb -26.5126 24.7448
rfemur -146.193 -25.6591 65.9271
rtibia 143.442
rfoot 13.4516 9.38758
rtoes 33.4071
lfemur -131.012 9.07812 -59.4609
ltibia 136.22
lfoot 17.5344 1.39556
ltoes 33.6258
395
root 5.31017 2.54683 23.5876 145.668 -80.5915 -174.143
lowerback 55.5149 -1.36426 6.67131
upperback 9.12705 -0.713982 -2.01482
thorax -10.9274 -1.35597 -4.71591
lowerneck -14.4286 19.2501 17.2479
upperneck 5.07609 24.1503 -13.5222
head 7.48986 11.2586 -3.63958
rclavicle 2.98177e-015 -5.08889e-014
rhumerus 18.5272 50.032 -0.686008
rradius 74.0005
rwrist -48.6079
rhand 25.2009 -16.7482
rfingers 7.12502
rthumb 49.3456 -38.3079
lclavicle 2.98177e-015 -5.08889e-014
lhumerus -45.0812 -17.4113 72.2978
lradius 49.4793
lwrist 69.2217
lhand -53.8102 -1.56206
lfingers 7.12502
lthumb -26.2416 26.6435
rfemur -146.318 -25.5921 65.8936
rtibia 143.492
rfoot 13.5285 9.28223
rtoes 33.7184
lfemur -131.037 8.86568 -59.4132
ltibia 136.2
lfoot 17.5435 1.49093
ltoes 33.7048
